<svg version="1.0" xmlns="http://www.w3.org/2000/svg" width="4352" height="4352" viewBox="0 0 3264 3264">
  <path d="M1574 5.1c-44.6 1.8-86.1 4.6-114 7.9-31.4 3.6-39.7 4.7-62.5 8.1-7.7 1.1-16.7 2.4-20 2.9-16.7 2.5-21.2 3.2-36 6.1-16.2 3.1-26.6 5.2-47.5 9.5-16.9 3.6-18.5 3.9-30.5 6.8-6 1.4-15.5 3.7-21 5-24.6 5.8-69.7 18.3-94.2 26-4.6 1.4-11.8 3.7-16 5-11 3.5-55.7 18.9-62.3 21.6-3 1.2-10.2 3.9-16 6-22.3 8-74.7 30.3-115 49.1-42 19.5-116.2 59.2-150 80.3-8.6 5.3-9.2 5.7-17.5 10.7-11.4 6.9-49.7 32.1-67.2 44.2-38.2 26.5-78.9 57.4-110.8 84.1-6.6 5.6-13.1 11.1-14.5 12.2-1.4 1.2-8.1 7-14.9 13s-14.4 12.6-16.9 14.7c-4.7 3.9-23.2 21-39.2 36.2-15.6 14.7-53.7 53.1-66.7 67-21.7 23.3-39.6 43.9-68.1 78-18.3 21.8-63.8 82.2-78.4 104-3 4.4-10.1 15-15.9 23.5-18.6 27.5-49.8 77.9-63.9 103.5-1.8 3.3-6.3 11.4-10 18-12.2 21.9-38.3 73-46.1 90.2-1.2 2.7-3.7 8.2-5.6 12.3s-5.3 11.5-7.5 16.5c-2.2 4.9-4.6 10.3-5.3 12-.8 1.6-3.5 7.9-6 14-2.6 6-5.3 12.3-6 14-.8 1.6-3.7 8.8-6.5 16-2.8 7.1-5.8 14.6-6.7 16.5-.8 1.9-3.2 8.2-5.3 14s-5 13.6-6.5 17.5c-7.6 20.3-20.6 59.2-30.6 92-2.7 8.9-8.9 30.3-10.9 38-8.4 31.7-11.4 43.5-15 59-1.1 4.9-2.5 10.8-3 13s-1.4 6.2-2 9c-.6 2.7-2.4 11.3-4.1 19-3.5 16-5.4 26.1-10.4 55-2.8 15.7-3.5 20.2-6 37.5-7.7 53.3-11 86.1-15.7 156.5-1.7 25.7-1.7 138.4 0 164 4.3 63.9 8.8 110 14.2 145 .5 3.3 1.2 8.2 1.5 11 .3 2.7 1 7.2 1.5 10 .5 2.7 1.4 8.1 2 12 1.5 9.8 3.9 24.2 5 29.5.5 2.5 1.6 8.5 2.5 13.5 1.5 8.2 3.5 18.2 5.5 27.5.4 1.9 1.7 8.2 2.9 14 4.5 21.8 16.4 69.7 23.3 93.5 1.1 3.8 2.4 8.3 2.8 10 6.7 23.6 19 62.3 27.7 87 9.8 27.9 28.8 78 33.8 89 .7 1.6 3 7 5 12 2.1 4.9 5 11.8 6.6 15.3 1.6 3.4 2.9 6.4 2.9 6.7 0 .4 4.6 10.5 10.5 23 1.8 3.8 4.3 9.2 5.5 12 3.4 7.6 27.9 56.6 34 68 26.7 49.9 59.5 104.8 86.5 144.5 21.4 31.5 24.8 36.5 29 42 2.3 3 7.7 10.4 12 16.5 4.4 6 8.1 11.2 8.5 11.5.3.3 4.8 6.1 10 13 42.8 56.6 88.5 108.7 142.9 163 31.9 31.8 38.1 37.7 72.1 68.1 20.3 18.2 61.2 51.7 89 72.9 55.7 42.4 113.8 81.4 170 114 4.1 2.4 9.5 5.5 12 7s7.4 4.3 11 6.2 8.1 4.4 10 5.5 8.5 4.6 14.5 7.8c6.1 3.2 13.8 7.3 17.2 9.1 12.2 6.6 68.5 34.4 69.7 34.4.2 0 4.8 2.1 10.3 4.6 25.4 12 76.9 33.2 109.3 45.1 26.4 9.7 72.2 25.2 92 31.3 10.5 3.2 27.3 8.1 30.5 9 4.2 1.1 21 5.6 34 9 9.1 2.5 30.2 7.6 49 12 17.3 4 44.3 9.4 75.5 15.1 16.2 3 34.9 5.8 65 10 4.1.6 10.4 1.4 14 2 20.1 2.8 52.8 6.1 82 8.3 11.3.9 27.5 2.1 36 2.8 21.1 1.7 153.6 1.7 174.5 0 8.3-.7 24.2-1.9 35.5-2.7 27.8-2.1 62-5.6 82-8.4 3.6-.6 9.9-1.4 14-2 30.1-4.2 48.8-7 65-10 19.8-3.6 33.1-6.1 37-6.9 17.2-3.6 31.1-6.5 34.5-7.2 12.5-2.6 58.2-14.1 85-21.5 41.8-11.5 101.7-31.7 152-51.3 35.1-13.7 72.4-29.7 104.5-44.9 23.5-11.2 65.2-32.4 81.3-41.5 3.8-2.1 7-3.8 7.2-3.8.1 0 4.9-2.6 10.6-5.9 10.5-5.9 15.1-8.5 31.4-18.1 5-2.8 10.4-6 12-7 12.9-7.4 81.6-51.8 87-56.2.6-.5 4.7-3.4 9.1-6.6 24.4-17.1 51.9-37.7 76.9-57.5 21.6-17.1 22.4-17.8 46.5-37.9 10.8-9 37.9-33.3 56-50.2 9.8-9.2 61.4-60.9 71-71.1 43.3-46.2 80.2-90.4 121.5-145.5 29.5-39.2 69.8-99.9 92.8-139.5 3.9-6.6 8.5-14.5 10.2-17.5 5.4-9.2 11-19.1 15-26.5 2.1-3.9 5.2-9.5 6.9-12.5 6.9-12.6 17.4-32.9 28.2-55 10.8-21.9 13.5-27.5 19.4-40.5 1.2-2.8 3.8-8.4 5.7-12.5s5.3-11.8 7.5-17 5-11.8 6.3-14.5c3.4-7.6 18.6-46.2 24.5-62 2.8-7.7 5.7-15.4 6.5-17 .7-1.7 4.5-12.7 8.4-24.5 4-11.8 7.6-22.4 8.1-23.5.4-1.1 2-6.1 3.5-11 1.4-5 3.1-10.1 3.6-11.4.5-1.2 1.9-5.5 3-9.5 3.5-12 6.6-22.7 9.7-33.1 1.6-5.5 4.6-16.5 6.7-24.5 2-8 4.1-15.9 4.6-17.5.5-1.7 2.7-10.7 4.9-20 6.8-28.6 7-29.7 10.5-46.5 1.4-6.9 3-14.3 3.5-16.5s1.6-8.3 2.5-13.5 2.5-13.8 3.5-19 2.6-14.5 3.5-20.5c.9-6.1 2-13.3 2.5-16 .5-2.8 1.6-10.4 2.5-17s2-14.7 2.5-18 1.7-12.1 2.5-19.5 2-17.3 2.5-22c3.7-31.7 6.4-71.3 8.1-117.5 1.2-33.1.6-117.3-1.1-140-.5-7.7-1.7-23.9-2.6-36-.8-12.1-2.2-28.3-3-36s-1.9-18.5-2.4-24c-1.1-10.2-2.2-19.6-4-32-.6-3.9-2-13.5-3.1-21.5s-2.5-17.2-3-20.5c-.6-3.3-1.6-10.1-2.4-15-.7-5-2-12.4-2.8-16.5-.9-4.1-2.3-11.8-3.2-17s-2-11.3-2.5-13.5c-2.3-9.8-7.3-33.4-8-37-1-5.4-7.4-32-11.5-48-8.8-33.8-15.9-58.7-27.9-97-3.6-11.8-18.7-55.3-23.5-68-7.2-18.7-20.2-51.7-22.7-57.3-1.3-2.9-2.4-5.5-2.4-5.8s-1.3-3.5-3-7.1c-1.6-3.5-3-6.6-3-6.9 0-.2-1.6-3.8-3.5-8-1.9-4.1-3.5-7.7-3.5-7.9 0-.5-2.7-6.5-8.7-19.5-1.9-4.1-4.9-10.4-6.5-14-4.2-9.2-30.7-62.1-35.3-70.5-2.1-3.9-5.5-10.1-7.7-13.8-2.1-3.8-3.8-7-3.8-7.2 0-.4-19-33.8-20-35-.4-.6-1.9-3-3.2-5.5-8.9-16-33.9-55.7-51.4-81.6-5.9-8.7-12.5-18.6-14.7-21.9-12.2-18.2-45-62-67-89.5-52-64.8-105.7-122.1-169.2-180.5-27.9-25.6-48.6-43.4-83.5-71.6-21.1-17.1-69.6-53.4-87-65.1-3.6-2.4-13.7-9.3-22.5-15.3-15.9-10.7-56.1-36.5-57-36.5-.3 0-3.6-2-7.3-4.4-20.2-12.9-77.4-44.7-109.7-60.9-25-12.5-83.1-39.7-84.9-39.7-.3 0-3.3-1.3-6.8-2.9-8.4-3.9-50.8-21.4-58.3-24.1-3.3-1.2-6.9-2.5-8-3-8.3-3.6-58.6-21.2-75.7-26.6-4.3-1.3-11.5-3.6-16-5-24.6-7.7-69.7-20.2-94.3-26-5.5-1.3-14.9-3.6-21-5-6-1.5-12.8-3-15-3.5s-9.4-2-16-3.4c-15.3-3.2-27-5.6-47-9.4-14.8-2.9-19.1-3.6-36-6.1-3.3-.5-10.7-1.6-16.4-2.5-11-1.7-15.5-2.3-40.6-5.4-27.8-3.5-33.5-4.1-56.5-6.1-58.7-5.1-142.6-7.2-199-4.9zm229 704.4c34.9 34.7 93.9 93.1 131 130 78.2 77.7 169.1 167.9 262 260 36 35.7 95.4 94.7 132 131 36.6 36.4 122.5 121.7 191 189.6 196.3 194.5 210 208.3 209.8 209-.4 1.2-75.1 76.2-491.2 493.4-580.6 582.1-606 607.6-607.3 607.3-.6-.2-9.6-9.1-20-19.8-57-59.2-101.4-105.1-113.3-117.5-7.5-7.7-26.6-27.5-42.5-44s-34.2-35.4-40.6-42-36.8-38.1-67.5-70c-30.8-31.9-71.8-74.4-91.2-94.5l-35.2-36.5 95.3-95.5c52.4-52.5 186.2-186.6 297.3-298 111.2-111.4 219.7-220.3 241.2-242 21.4-21.7 39.3-39.8 39.7-40.2.5-.5-157.7-158.8-578.2-578.3-55.2-54.9-100.3-100.3-100.3-100.8s93-94 206.7-207.8l206.7-207 55.6 55.3c30.5 30.5 84.1 83.7 119 118.3zm-420.5 644.7c105.6 105.4 212.1 211.6 236.8 235.9 24.6 24.3 44.7 44.7 44.7 45.3-.1.6-125.5 126.8-278.8 280.4L1106.5 2195l-74.8-74.5c-41.2-41-74.7-74.9-74.5-75.4.2-.6 378.2-380.5 406.4-408.5.5-.4-92.1-93.5-208.1-209.1l-209-208.4 75-75 75-75.1 47 46.8c25.8 25.7 133.4 133 239 238.4zm-404 132.3 149 148.4L982 1780.4l-145.5 145.5-148.7-148.4c-81.9-81.6-148.8-148.8-148.8-149.2 0-.9 289.2-290.3 290-290.2.3 0 67.6 66.8 149.5 148.4z"/>
  <path d="m1571.2 893.7-56.2 56.8 339.8 339.2 339.7 339.2-63.5 63.8c-34.9 35.1-151.8 152.2-259.6 260.3-269.7 270.3-352.9 354-352.9 354.9 0 1 5.3 6.6 65.4 68.9 26.6 27.6 48.7 50.2 49 50.2.4 0 78-77.5 172.7-172.3 438.3-438.9 622.4-623.8 622.4-625 0-.8-7.5-8.7-16.7-17.7-14.7-14.3-85.8-84.8-335.3-332.5-34.4-34.1-91.5-90.8-127-126-136.8-135.8-197.7-196.2-256.8-255-33.7-33.6-62.1-61.1-63.1-61.3-1.2-.2-18.8 16.9-57.9 56.5z"/>
</svg>
