<?xml version="1.0" standalone="no"?>
<!DOCTYPE svg PUBLIC "-//W3C//DTD SVG 20010904//EN"
 "http://www.w3.org/TR/2001/REC-SVG-20010904/DTD/svg10.dtd">
<svg version="1.0" xmlns="http://www.w3.org/2000/svg"
 width="3264.000000pt" height="3264.000000pt" viewBox="0 0 3264.000000 3264.000000"
 preserveAspectRatio="xMidYMid meet">

<g transform="translate(0.000000,3264.000000) scale(0.100000,-0.100000)"
fill="#000000" stroke="none">
<path d="M15740 32589 c-446 -18 -861 -46 -1140 -79 -314 -36 -397 -47 -625
-81 -77 -11 -167 -24 -200 -29 -167 -25 -212 -32 -360 -61 -162 -31 -266 -52
-475 -95 -169 -36 -185 -39 -305 -68 -60 -14 -155 -37 -210 -50 -246 -58 -697
-183 -942 -260 -46 -14 -118 -37 -160 -50 -110 -35 -557 -189 -623 -216 -30
-12 -102 -39 -160 -60 -223 -80 -747 -303 -1150 -491 -420 -195 -1162 -592
-1500 -803 -86 -53 -92 -57 -175 -107 -114 -69 -497 -321 -672 -442 -382 -265
-789 -574 -1108 -841 -66 -56 -131 -111 -145 -122 -14 -12 -81 -70 -149 -130
-68 -60 -144 -126 -169 -147 -47 -39 -232 -210 -392 -362 -156 -147 -537 -531
-667 -670 -217 -233 -396 -439 -681 -780 -183 -218 -638 -822 -784 -1040 -30
-44 -101 -150 -159 -235 -186 -275 -498 -779 -639 -1035 -18 -33 -63 -114
-100 -180 -122 -219 -383 -730 -461 -902 -12 -27 -37 -82 -56 -123 -19 -41
-53 -115 -75 -165 -22 -49 -46 -103 -53 -120 -8 -16 -35 -79 -60 -140 -26 -60
-53 -123 -60 -140 -8 -16 -37 -88 -65 -160 -28 -71 -58 -146 -67 -165 -8 -19
-32 -82 -53 -140 -21 -58 -50 -136 -65 -175 -76 -203 -206 -592 -306 -920 -27
-89 -89 -303 -109 -380 -84 -317 -114 -435 -150 -590 -11 -49 -25 -108 -30
-130 -5 -22 -14 -62 -20 -90 -6 -27 -24 -113 -41 -190 -35 -160 -54 -261 -104
-550 -28 -157 -35 -202 -60 -375 -77 -533 -110 -861 -157 -1565 -17 -257 -17
-1384 0 -1640 43 -639 88 -1100 142 -1450 5 -33 12 -82 15 -110 3 -27 10 -72
15 -100 5 -27 14 -81 20 -120 15 -98 39 -242 50 -295 5 -25 16 -85 25 -135 15
-82 35 -182 55 -275 4 -19 17 -82 29 -140 45 -218 164 -697 233 -935 11 -38
24 -83 28 -100 67 -236 190 -623 277 -870 98 -279 288 -780 338 -890 7 -16 30
-70 50 -120 21 -49 50 -118 66 -153 16 -34 29 -64 29 -67 0 -4 46 -105 105
-230 18 -38 43 -92 55 -120 34 -76 279 -566 340 -680 267 -499 595 -1048 865
-1445 214 -315 248 -365 290 -420 23 -30 77 -104 120 -165 44 -60 81 -112 85
-115 3 -3 48 -61 100 -130 428 -566 885 -1087 1429 -1630 319 -318 381 -377
721 -681 203 -182 612 -517 890 -729 557 -424 1138 -814 1700 -1140 41 -24 95
-55 120 -70 25 -15 74 -43 110 -62 36 -19 81 -44 100 -55 19 -11 85 -46 145
-78 61 -32 138 -73 172 -91 122 -66 685 -344 697 -344 2 0 48 -21 103 -46 254
-120 769 -332 1093 -451 264 -97 722 -252 920 -313 105 -32 273 -81 305 -90
42 -11 210 -56 340 -90 91 -25 302 -76 490 -120 173 -40 443 -94 755 -151 162
-30 349 -58 650 -100 41 -6 104 -14 140 -20 201 -28 528 -61 820 -83 113 -9
275 -21 360 -28 211 -17 1536 -17 1745 0 83 7 242 19 355 27 278 21 620 56
820 84 36 6 99 14 140 20 301 42 488 70 650 100 198 36 331 61 370 69 172 36
311 65 345 72 125 26 582 141 850 215 418 115 1017 317 1520 513 351 137 724
297 1045 449 235 112 652 324 813 415 38 21 70 38 72 38 1 0 49 26 106 59 105
59 151 85 314 181 50 28 104 60 120 70 129 74 816 518 870 562 6 5 47 34 91
66 244 171 519 377 769 575 216 171 224 178 465 379 108 90 379 333 560 502
98 92 614 609 710 711 433 462 802 904 1215 1455 295 392 698 999 928 1395 39
66 85 145 102 175 54 92 110 191 150 265 21 39 52 95 69 125 69 126 174 329
282 550 108 219 135 275 194 405 12 28 38 84 57 125 19 41 53 118 75 170 22
52 50 118 63 145 34 76 186 462 245 620 28 77 57 154 65 170 7 17 45 127 84
245 40 118 76 224 81 235 4 11 20 61 35 110 14 50 31 101 36 114 5 12 19 55
30 95 35 120 66 227 97 331 16 55 46 165 67 245 20 80 41 159 46 175 5 17 27
107 49 200 68 286 70 297 105 465 14 69 30 143 35 165 5 22 16 83 25 135 9 52
25 138 35 190 10 52 26 145 35 205 9 61 20 133 25 160 5 28 16 104 25 170 9
66 20 147 25 180 5 33 17 121 25 195 8 74 20 173 25 220 37 317 64 713 81
1175 12 331 6 1173 -11 1400 -5 77 -17 239 -26 360 -8 121 -22 283 -30 360 -8
77 -19 185 -24 240 -11 102 -22 196 -40 320 -6 39 -20 135 -31 215 -11 80 -25
172 -30 205 -6 33 -16 101 -24 150 -7 50 -20 124 -28 165 -9 41 -23 118 -32
170 -9 52 -20 113 -25 135 -23 98 -73 334 -80 370 -10 54 -74 320 -115 480
-88 338 -159 587 -279 970 -36 118 -187 553 -235 680 -72 187 -202 517 -227
573 -13 29 -24 55 -24 58 0 3 -13 35 -30 71 -16 35 -30 66 -30 69 0 2 -16 38
-35 80 -19 41 -35 77 -35 79 0 5 -27 65 -87 195 -19 41 -49 104 -65 140 -42
92 -307 621 -353 705 -21 39 -55 101 -77 138 -21 38 -38 70 -38 72 0 4 -190
338 -200 350 -4 6 -19 30 -32 55 -89 160 -339 557 -514 816 -59 87 -125 186
-147 219 -122 182 -450 620 -670 895 -520 648 -1057 1221 -1692 1805 -279 256
-486 434 -835 716 -211 171 -696 534 -870 651 -36 24 -137 93 -225 153 -159
107 -561 365 -570 365 -3 0 -36 20 -73 44 -202 129 -774 447 -1097 609 -250
125 -831 397 -849 397 -3 0 -33 13 -68 29 -84 39 -508 214 -583 241 -33 12
-69 25 -80 30 -83 36 -586 212 -757 266 -43 13 -115 36 -160 50 -246 77 -697
202 -943 260 -55 13 -149 36 -210 50 -60 15 -128 30 -150 35 -22 5 -94 20
-160 34 -153 32 -270 56 -470 94 -148 29 -191 36 -360 61 -33 5 -107 16 -164
25 -110 17 -155 23 -406 54 -278 35 -335 41 -565 61 -587 51 -1426 72 -1990
49z m2290 -7044 c349 -347 939 -931 1310 -1300 782 -777 1691 -1679 2620
-2600 360 -357 954 -947 1320 -1310 366 -364 1225 -1217 1910 -1896 1963
-1945 2100 -2083 2098 -2090 -4 -12 -751 -762 -4912 -4934 -5806 -5821 -6060
-6076 -6073 -6073 -6 2 -96 91 -200 198 -570 592 -1014 1051 -1133 1175 -75
77 -266 275 -425 440 -159 165 -342 354 -406 420 -64 66 -368 381 -675 700
-308 319 -718 744 -912 945 l-352 365 953 955 c524 525 1862 1866 2973 2980
1112 1114 2197 2203 2412 2420 214 217 393 398 397 402 5 5 -1577 1588 -5782
5783 -552 549 -1003 1003 -1003 1008 0 5 930 940 2067 2078 l2067 2070 556
-553 c305 -305 841 -837 1190 -1183z m-4205 -6447 c1056 -1054 2121 -2116
2368 -2359 246 -243 447 -447 447 -453 -1 -6 -1255 -1268 -2788 -2804 l-2787
-2792 -748 745 c-412 410 -747 749 -745 754 2 6 3782 3805 4064 4085 5 4 -921
935 -2081 2091 l-2090 2084 750 750 750 751 470 -468 c258 -257 1334 -1330
2390 -2384z m-4040 -1323 l1490 -1484 -1455 -1455 -1455 -1455 -1487 1484
c-819 816 -1488 1488 -1488 1492 0 9 2892 2903 2900 2902 3 0 676 -668 1495
-1484z"/>
<path d="M15712 23703 l-562 -568 3398 -3392 3397 -3392 -635 -638 c-349 -351
-1518 -1522 -2596 -2603 -2697 -2703 -3529 -3540 -3529 -3549 0 -10 53 -66
654 -689 266 -276 487 -502 490 -502 4 0 780 775 1727 1723 4383 4389 6224
6238 6224 6250 0 8 -75 87 -167 177 -147 143 -858 848 -3353 3325 -344 341
-915 908 -1270 1260 -1368 1358 -1977 1962 -2568 2550 -337 336 -621 611 -631
613 -12 2 -188 -169 -579 -565z"/>
</g>
</svg>
